<svg xmlns="http://www.w3.org/2000/svg" width="24" height="24" viewBox="0 0 24 24">
  <path fill="#000000" d="M22.47 5.2C22 4.96 21.51 4.76 21 4.59v12.03C19.86 16.21 18.69 16 17.5 16c-1.9 0-3.78.54-5.5 1.58V5.48C10.38 4.55 8.51 4 6.5 4c-1.79 0-3.48.44-4.97 1.2C1.2 5.36 1 5.71 1 6.08v12.08c0 .58.47.99 1 .99.16 0 .32-.04.48-.12C3.69 18.4 5.05 18 6.5 18c2.07 0 3.98.82 5.5 2 1.52-1.18 3.43-2 5.5-2 1.45 0 2.81.4 4.02 1.04.16.08.32.12.48.12.52 0 1-.41 1-.99V6.08c0-.37-.2-.72-.53-.88ZM10 16.62C8.86 16.21 7.69 16 6.5 16c-1.19 0-2.36.21-3.5.62V6.71C4.11 6.24 5.28 6 6.5 6c1.2 0 2.39.25 3.5.72v9.9ZM19 .5l-5 5V15l5-4.5V.5Z"/>
</svg>
